
<svg xmlns="http://www.w3.org/2000/svg" viewBox="0 0 585.41 66.57">
  <defs>
    <style>
      .cls-1 {
        fill: #361211;
        stroke-width: 0px;
      }
    </style>
  </defs>
  <g>
    <path class="cls-1" d="M62.89,44.2c0-11.81,11.42-21.43,25.54-21.43s25.54,9.62,25.54,21.43-11.42,21.43-25.54,21.43-25.54-9.5-25.54-21.43ZM83.29,44.2c0,8.34,2.31,15.01,5.13,15.01s5.26-6.67,5.26-15.01-2.31-15.01-5.26-15.01-5.13,6.8-5.13,15.01Z"/>
    <path class="cls-1" d="M114.48,31.75c-2.95-5.65,4.36-8.98,12.45-8.98s12.45,2.69,15.14,7.57c2.82,5,1.92,9.62,5.39,17.07l.13-.26c4.62-8.73,1.15-11.42,4.62-17.84,2.57-4.62,5.77-6.54,10.65-6.54s7.44,3.72,5.39,7.57c-2.95,5.26-8.6,8.08-13.35,16.81l-7.7,14.24c-3.46,6.03-10.39,5.39-12.96,0l-6.29-11.93c-4.62-8.73-9.62-10.52-13.47-17.71Z"/>
    <path class="cls-1" d="M168.25,44.2c0-11.81,11.42-21.43,25.54-21.43,13.09,0,23.61,8.34,23.61,15.91,0,9.75-16.43,7.57-19.51,13.99,5.13,1.92,10.52,1.41,12.32-1.8,1.67-2.82,8.98-1.54,6.42,2.95-4.11,7.06-12.83,11.81-22.84,11.81-14.12,0-25.54-9.5-25.54-21.43ZM187.24,37.91c0,5.13,2.31,9.11,5.52,11.68.64-6.03,5.9-13.73,5.9-17.84,0-4.75-11.42-4.36-11.42,6.16Z"/>
  </g>
  <path class="cls-1" d="M263.78,12.74c-.69,1.26-2.74,7.71-2.91,8.38-3.08,12.72,3.54,23.76,9.01,32.48,3.99,6.35-1.26,7.67.55,9.68,5.62,6.27,31.63,3.23,41.11-6.12,12.98-12.79,6.15-27.35-5.56-27.5-11.71-.15-16.24,10.37-14.76,14.01.1.25-1.61,4.29-3.96,5.44-2.67,1.3-5.46.21-7.61-1.43-1.13-.86-2.43-3.56-1.51-6.11.86-2.39,3.3-4.9,4.15-4.62,2.45.81,9.89-2.37,13.24-8.5s2.54-15.02,1.32-18.38c-2.47-6.8-11.07-9.28-13.88-9.12-1.46.09-6.36-.28-11.31,2.67-5.1,3.05-7.15,7.81-7.87,9.12Z"/>
  <g>
    <path class="cls-1" d="M382.23,58.06c0,5.65-4.36,7.57-12.45,7.57s-12.58-1.92-12.58-7.57c0-6.93,3.85-10.27,3.85-18.48,0-5.39-2.31-10.39-5.77-10.39-4.36,0-9.37,6.42-9.37,13.35v.77c0,8.6,3.98,9.24,3.98,14.76s-4.36,7.57-12.58,7.57-12.58-1.92-12.58-7.57c0-5,3.98-4.49,3.98-12.06,0-5.52-4.88-6.93-4.88-11.81,0-6.93,21.43-16.17,25.41-8.6,2.95-1.8,6.54-2.82,10.52-2.82,11.29,0,18.61,6.42,18.61,16.17v.64c.13,8.21,3.85,11.55,3.85,18.48Z"/>
    <path class="cls-1" d="M409.43,22.77c9.24,0,21.3,3.08,22.97,8.85,1.92,5.9-10.78,6.16-15.14,2.18-6.29-6.03-11.04-5.39-11.04-2.31-.13,3.72,15.78,6.67,22.84,12.7,9.62,8.34-.77,21.43-19.38,21.43-9.24,0-21.17-3.08-22.97-8.85-1.8-5.9,10.91-6.16,15.14-2.05,6.42,5.9,11.16,5.26,11.16,2.18,0-3.59-15.4-6.67-22.84-12.71-10.01-7.96.77-21.43,19.25-21.43Z"/>
    <path class="cls-1" d="M435.74,44.2c0-11.81,11.42-21.43,25.54-21.43,13.09,0,23.61,8.34,23.61,15.91,0,9.75-16.43,7.57-19.51,13.99,5.13,1.92,10.52,1.41,12.32-1.8,1.67-2.82,8.98-1.54,6.42,2.95-4.11,7.06-12.83,11.81-22.84,11.81-14.12,0-25.54-9.5-25.54-21.43ZM454.73,37.91c0,5.13,2.31,9.11,5.52,11.68.64-6.03,5.9-13.73,5.9-17.84,0-4.75-11.42-4.36-11.42,6.16Z"/>
    <path class="cls-1" d="M546.36,58.06c0,5.65-4.36,7.57-12.45,7.57s-12.58-1.92-12.58-7.57c0-6.93,3.85-10.27,3.85-18.48,0-5.39-2.31-10.39-5.77-10.39-4.36,0-9.37,6.42-9.37,13.35v.77c0,8.6,3.98,9.24,3.98,14.76s-4.36,7.57-12.58,7.57-12.58-1.92-12.58-7.57c0-5,3.98-4.49,3.98-12.06,0-5.52-4.88-6.93-4.88-11.81,0-6.93,21.43-16.17,25.41-8.6,2.95-1.8,6.54-2.82,10.52-2.82,11.29,0,18.61,6.42,18.61,16.17v.64c.13,8.21,3.85,11.55,3.85,18.48Z"/>
    <path class="cls-1" d="M545.98,28.16c0-2.95,2.44-5.39,5.39-5.39h1.8c3.34,0,8.85-10.27,15.4-10.27,3.85,0,6.8,1.54,6.8,5.65,0,1.8-.51,3.21-1.16,4.62h3.85c2.95,0,5.39,2.44,5.39,5.39s-2.44,5.39-5.39,5.39h-6.67v15.27c0,4.36,1.16,7.57,8.08,4.23,2.82-1.28,8.08.26,5,5.26-3.34,5.77-10.91,7.31-16.3,7.31-6.8,0-15.01-4.11-15.01-13.35v-18.74h-1.8c-2.95,0-5.39-2.44-5.39-5.39Z"/>
  </g>
  <path class="cls-1" d="M3.69,11.8c-.69,1.26-2.74,7.71-2.91,8.38-3.08,12.72,3.54,23.76,9.01,32.48,3.99,6.35-1.26,7.67.55,9.68,5.62,6.27,31.63,3.23,41.11-6.12,12.98-12.79,6.15-27.35-5.56-27.5-11.71-.15-16.24,10.37-14.76,14.01.1.25-1.61,4.29-3.96,5.44-2.67,1.3-5.46.21-7.61-1.43-1.13-.86-2.43-3.56-1.51-6.11.86-2.39,3.3-4.9,4.15-4.62,2.45.81,9.89-2.37,13.24-8.5s2.54-15.02,1.32-18.38C34.29,2.33,25.69-.16,22.87,0c-1.46.09-6.36-.28-11.31,2.67-5.1,3.05-7.15,7.81-7.87,9.12Z"/>
</svg>